<?xml version="1.0" encoding="iso-8859-1"?>
<!-- Generator: Adobe Illustrator 19.0.0, SVG Export Plug-In . SVG Version: 6.00 Build 0)  -->
<svg version="1.1" id="Layer_1" xmlns="http://www.w3.org/2000/svg" xmlns:xlink="http://www.w3.org/1999/xlink" x="0px" y="0px"
	 viewBox="0 0 219.391 219.391" style="enable-background:new 0 0 219.391 219.391;" xml:space="preserve">
<g>
	<path style="fill:#1D1D1B;" d="M210.522,10.385c0.281,1.688-0.201,3.617-0.844,5.425c0.402,0.362,0.643,0.844,0.643,1.527
		c-0.281,33.314-1.808,66.668-2.773,99.942c-0.964,33.153-0.161,67.03-3.858,99.982c-0.08,0.884-0.723,1.326-1.407,1.326
		c-0.321,0.482-0.844,0.804-1.607,0.804c-61.444-1.969-124.174-1.085-185.336-7.555c-0.964-0.08-1.246-1.045-0.924-1.728
		c-0.161-0.241-0.321-0.522-0.362-0.884C9.875,140.988,10.759,72.11,8.79,3.754c-0.08-1.768,1.648-2.411,2.934-1.969
		c-0.08-0.643,0.241-1.326,1.125-1.366c64.538-2.009,130.402,3.697,194.9,6.832c1.286,0.04,1.969,1.125,1.929,2.13
		C210.08,9.581,210.401,9.862,210.522,10.385z M206.543,16.212c-0.08-1.608-0.04-3.376,0.362-4.903
		C153.257,9.702,98.524,9.782,44.756,5.763C34.106,4.96,23.497,4.035,12.969,2.87c0.121,0.241,0.201,0.563,0.241,0.884
		c2.049,68.275,6.028,137.194,3.978,205.469c0,0.08-0.04,0.161-0.08,0.281c60.841-2.009,122.727,3.215,183.568,5.586
		c0.04,0,0.12,0.04,0.161,0.04c-1.487-31.666,1.085-63.936,2.09-95.682c0.04-0.723,0.04-1.447,0.08-2.17
		c0.964-33.314,1.447-66.668,3.175-99.942C206.182,16.855,206.342,16.533,206.543,16.212z"/>
	<path style="fill:#F6F6F6;" d="M206.905,11.309c-0.402,1.527-0.442,3.295-0.362,4.903c-0.201,0.322-0.362,0.643-0.362,1.125
		c-1.728,33.274-2.21,66.628-3.175,99.942c-0.04,0.723-0.04,1.447-0.08,2.17l-4.099-0.121c0.04-0.804-1.125-0.763-1.206,0
		c-0.12,1.326-0.201,2.652-0.281,3.978l-2.652-0.161c0.482-7.836,0.924-15.672,1.246-23.549c1.768-0.241,2.009-2.733,0.241-3.335
		c-0.04,0-0.08,0-0.08-0.04c0.924-24.553,0.764-49.107-1.929-72.857c-0.121-1.005-1.326-1.125-1.688-0.362l-0.161-0.12
		c0.281-0.965-0.201-2.25-1.527-2.291c-49.067-1.447-97.933,1.768-146.959,0l0.161-5.023c0.723,0,0.924-1.165,0.161-1.406
		c-1.085-0.362-2.17-0.723-3.295-1.005l0.241-0.844c0.08,0.04,0.201,0.08,0.362,0.08c2.291,0.121,4.541,0.201,6.832,0.683
		c0.964,0.201,1.326-1.165,0.402-1.487c-1.406-0.442-2.853-0.804-4.3-0.964l0.362-4.863C98.524,9.782,153.257,9.702,206.905,11.309z
		 M185.124,15.448c0.844,0.08,0.804-1.165,0-1.246c-2.009-0.241-3.978-0.764-5.867-1.527c-0.683-0.241-1.165,0.924-0.482,1.206
		C180.824,14.765,182.874,15.287,185.124,15.448z"/>
	<path style="fill:#F6F6F6;" d="M198.828,119.328l4.099,0.121c-1.005,31.747-3.577,64.016-2.09,95.682
		c-0.04,0-0.121-0.04-0.161-0.04c-60.841-2.371-122.727-7.595-183.568-5.586c0.04-0.121,0.08-0.201,0.08-0.281
		c2.05-68.276-1.929-137.194-3.978-205.47c-0.04-0.322-0.121-0.643-0.241-0.884c10.529,1.165,21.138,2.09,31.787,2.893l-0.362,4.863
		c-0.965-0.121-1.929-0.121-2.934,0c-1.005,0.12-1.125,1.326-0.362,1.688l-0.241,0.844c-1.889-0.603-3.777-1.085-5.706-1.608
		c-1.005-0.241-1.406,1.246-0.442,1.527c3.014,0.884,5.988,1.768,9.082,2.451c0.08,0,0.121,0.04,0.201,0.04l-0.161,5.023
		c-4.983-0.161-9.966-0.402-14.949-0.683c-0.402,0-0.603,0.241-0.683,0.522c-0.442,0.04-0.884,0.322-0.924,0.924
		c-4.581,45.37-1.125,92.789,1.848,138.158c0.04,0.884,0.643,1.407,1.286,1.607c0.121,0.08,0.161,0.201,0.321,0.241
		c48.022,10.046,101.63,10.006,150.616,9.765c0.603,0,1.045-0.281,1.326-0.643c1.768,0.322,3.577,0.563,5.184-0.161
		c0.362-0.161,0.522-0.482,0.643-0.844c1.045,0.723,2.934,0.241,3.054-1.447c1.045-14.708,2.17-29.737,3.135-44.887l2.652,0.161
		c-0.08,1.366-0.121,2.692-0.201,4.019c-0.04,0.683,0.965,0.683,1.045,0C198.426,124.673,198.667,121.98,198.828,119.328z
		 M195.412,203.196c0.08-2.692,0.161-5.345,0.04-8.037c-0.08-1.005-1.487-1.005-1.567,0c-0.121,2.692-0.04,5.345,0.04,8.037
		C193.965,204.16,195.372,204.16,195.412,203.196z M190.389,199.177c0.08-1.688,0.121-3.335,0-5.023
		c-0.08-0.924-1.407-0.964-1.487,0c-0.121,1.688-0.08,3.335,0,5.023C188.902,200.142,190.389,200.142,190.389,199.177z
		 M150.966,197.972c1.045-0.08,1.045-1.527,0-1.607c-2.532-0.161-5.023-0.201-7.515-0.161c-1.246,0-1.246,1.929,0,1.929
		C145.943,198.172,148.435,198.132,150.966,197.972z M117.331,180.41c0.924-0.12,1.005-1.607,0-1.567
		c-2.21,0.08-4.38,0.281-6.55,0.522c-0.964,0.121-1.005,1.567,0,1.527C112.951,180.772,115.121,180.651,117.331,180.41z
		 M113.795,173.659c0.764,0.04,0.723-1.085,0-1.125c-2.492-0.281-5.023-0.402-7.515-0.563c-0.763-0.04-0.763,1.085,0,1.125
		C108.771,173.298,111.263,173.579,113.795,173.659z M37.924,199.499c0.964,0.121,1.165-1.447,0.241-1.648
		c-4.059-0.884-8.158-1.125-12.297-1.125c-1.206-0.04-1.206,1.889,0,1.889C29.927,198.695,33.946,199.137,37.924,199.499z
		 M34.95,203.316c1.407,0.04,1.407-2.291,0-2.25c-3.536,0.12-7.073,0.161-10.569,0.362c-0.964,0.04-0.964,1.487,0,1.527
		C27.878,203.155,31.414,203.196,34.95,203.316z"/>
	<path style="fill:#1D1D1B;" d="M197.622,119.328c0.08-0.763,1.246-0.804,1.206,0c-0.161,2.652-0.402,5.345-0.643,7.997
		c-0.08,0.683-1.085,0.683-1.045,0c0.08-1.326,0.121-2.652,0.201-4.019C197.421,121.98,197.501,120.654,197.622,119.328z"/>
	<path style="fill:#1D1D1B;" d="M196.175,96.262c1.768,0.603,1.527,3.094-0.241,3.335c-0.321,7.876-0.764,15.713-1.246,23.549
		c-0.965,15.15-2.09,30.179-3.135,44.887c-0.12,1.688-2.009,2.17-3.054,1.447c-0.121,0.362-0.281,0.683-0.643,0.844
		c-1.607,0.723-3.416,0.482-5.184,0.161c-0.281,0.362-0.723,0.643-1.326,0.643c-48.986,0.241-102.594,0.281-150.616-9.765
		c-0.161-0.04-0.201-0.161-0.321-0.241c-0.643-0.201-1.246-0.723-1.286-1.607c-2.974-45.37-6.43-92.789-1.848-138.158
		c0.04-0.603,0.482-0.884,0.924-0.924c0.08-0.281,0.281-0.522,0.683-0.522c4.983,0.281,9.966,0.522,14.949,0.683
		c49.027,1.768,97.892-1.447,146.959,0c1.326,0.04,1.808,1.326,1.527,2.291c-0.241,0.563-0.723,1.005-1.527,0.964
		c-53.688-1.607-108.14,4.782-161.587-2.25c1.366,29.657,1.165,59.354,1.607,89.051c3.697-6.952,8.319-13.543,14.909-17.802
		c5.063-3.215,19.892-9.162,25.076-4.059c0.241,0.241,0.362,0.522,0.402,0.804c0.804,0.362,1.085,1.527,0.161,2.21
		c-10.77,7.917-14.186,20.937-4.742,29.014c22.424,9.845,28.733-27.728,37.051-39.061c4.219-5.706,9.604-10.247,15.833-13.583
		c13.744-7.354,29.376-6.992,42.999,0.241c0.804,0.402,0.924,1.326,0.643,2.009c-0.04,0.322-0.12,0.643-0.362,0.884
		c-5.103,5.866-10.528,11.693-13.14,19.168c-4.179,12.136,4.26,20.535,15.913,21.62c0.683,0.08,1.165,0.442,1.447,0.884
		c6.068-0.764,12.457-10.569,16.275-13.462c2.009-1.567,4.26-2.813,6.59-3.416c0.281-24.312,0.643-48.625,2.532-72.736
		c0-0.12,0.04-0.281,0.08-0.362c0.362-0.764,1.567-0.643,1.688,0.362c2.692,23.75,2.853,48.303,1.929,72.857
		C196.095,96.262,196.135,96.262,196.175,96.262z M189.786,103.093c0-0.763,0-1.487,0.04-2.21
		c-6.269,2.492-9.765,8.479-15.994,12.377c-2.331,1.487-4.943,2.451-7.475,2.291c-0.241,0.12-0.482,0.201-0.804,0.241
		c-10.247,0.964-20.173-5.867-21.741-16.315c-1.607-10.89,6.671-22.343,15.15-28.853c-3.014-0.965-5.948-1.648-8.881-2.17
		c-0.201,0.281-0.482,0.442-0.804,0.322c-3.054-1.005-6.59,4.38-7.876,6.51c-1.165,2.009-1.688,3.576,0.563,4.983
		c0.884,0.563,1.768,0.884,2.612,1.567c1.045,0.844,0.161,2.773-1.125,2.692c-0.523-0.04-1.045-0.161-1.567-0.362
		c-2.974,2.25-5.626,4.943-6.55,8.68c-1.125,4.782,1.487,9.363,5.947,11.132c1.125,0.442,1.286,2.17,0.322,2.612
		c-0.241,3.697,0.121,7.515,2.813,10.368c3.054,3.255,7.153,3.335,11.252,2.612c0.924-0.161,1.688,0.442,1.929,1.165
		c1.527,3.456,7.033,3.778,10.167,2.853c3.657-1.085,5.063-3.737,6.068-7.153c0.161-0.683,0.844-1.005,1.487-1.005
		c0.121-0.04,0.161-0.121,0.322-0.121c3.536,0.362,6.872-0.281,9.564-2.733c2.692-2.451,2.934-5.425,3.777-8.68
		C189.103,103.455,189.424,103.214,189.786,103.093z M187.857,167.792c1.165-18.485,1.567-37.051,1.808-55.617
		c-0.764,1.125-1.607,2.17-2.572,2.934c-2.893,2.451-6.711,3.376-10.408,2.853c0.161,10.207-18.405,12.297-20.374,4.782
		c-9.444,4.42-21.66-6.791-16.717-16.356c-5.023-1.286-8.158-6.269-7.916-11.533c0.241-5.144,3.576-9.363,7.876-11.895
		c-0.764-0.563-1.447-1.206-1.929-1.929c-1.366-2.17-0.723-4.461,0.523-6.55c1.085-1.848,3.295-4.983,5.787-6.751
		c-13.824-0.804-26.643,3.938-36.408,16.677c-4.019,5.264-6.269,11.533-8.72,17.682c0.121,0.121,0.241,0.201,0.281,0.402
		c1.768,7.836,0.603,17.601-4.581,24.031c-3.496,4.34-8.961,6.992-14.226,4.863c0.522,6.269-7.716,8.841-12.9,7.153
		c-4.983-1.567-9.564-6.309-9.002-11.493c-4.38,1.567-9.524-2.21-11.373-6.349c-2.049-4.661-1.206-11.654,2.893-15.029
		c-2.451-1.286-3.858-4.943-3.175-7.756c0.121-0.482,0.281-0.924,0.482-1.407c-1.849,1.165-3.496,2.411-4.782,3.617
		c-4.702,4.501-8.118,10.046-11.493,15.592c0.281,14.547,0.723,29.135,1.688,43.682c49.509,4.139,99.259,3.978,148.727,8.238
		c0.121,0,0.241,0.08,0.362,0.12C183.678,167.149,186.169,166.988,187.857,167.792z M95.149,119.007
		c1.447-4.019,1.487-8.158,1.728-12.297c-1.567,3.496-3.335,6.912-5.787,9.926c-5.144,6.39-11.975,9.966-18.727,9.042
		c-0.201,0.482-0.643,0.884-1.206,0.924c-8.278,0.442-14.427-8.198-14.909-15.833c-0.522-8.278,4.461-15.391,11.212-19.651
		c-4.22-0.924-9.404,0.201-14.145,2.21c-0.844,0.643-1.607,1.366-2.25,2.25c-1.969,2.893-2.411,7.957,2.371,7.836
		c1.085-0.04,1.527,1.527,0.563,2.09c-0.321,0.161-0.603,0.201-0.884,0.281c-2.25,2.893-4.3,5.465-4.179,9.484
		c0.201,5.144,4.862,10.81,10.408,8.399c1.165-0.482,2.492,0.884,1.447,1.889c-0.161,0.12-0.321,0.201-0.442,0.321
		c-0.402,9.243,15.11,14.989,17.441,4.179c0.161-0.643,0.804-0.884,1.366-0.764c0.241-0.121,0.482-0.161,0.804-0.04
		C87.232,132.308,93.059,124.874,95.149,119.007z"/>
	<path style="fill:#1D1D1B;" d="M195.452,195.159c0.121,2.692,0.04,5.345-0.04,8.037c-0.04,0.964-1.447,0.964-1.487,0
		c-0.08-2.692-0.161-5.345-0.04-8.037C193.965,194.154,195.372,194.154,195.452,195.159z"/>
	<path style="fill:#33B3E2;" d="M192.478,23.003c-0.04,0.08-0.08,0.241-0.08,0.362c-1.889,24.111-2.25,48.424-2.532,72.736
		c-2.331,0.603-4.581,1.848-6.59,3.416c-3.818,2.893-10.207,12.699-16.275,13.462c-0.281-0.442-0.764-0.804-1.447-0.884
		c-11.654-1.085-20.093-9.484-15.913-21.62c2.612-7.475,8.037-13.302,13.141-19.169c0.241-0.241,0.321-0.563,0.362-0.884
		c0.281-0.683,0.161-1.607-0.643-2.009c-13.623-7.233-29.255-7.595-42.999-0.241c-6.229,3.335-11.614,7.876-15.833,13.583
		c-8.318,11.332-14.628,48.906-37.051,39.061c-9.444-8.077-6.028-21.097,4.742-29.014c0.924-0.683,0.643-1.848-0.161-2.21
		c-0.04-0.281-0.161-0.563-0.402-0.804c-5.184-5.104-20.012,0.844-25.076,4.059c-6.59,4.26-11.212,10.85-14.909,17.802
		c-0.442-29.697-0.241-59.394-1.607-89.051c53.447,7.032,107.898,0.643,161.587,2.25c0.804,0.04,1.286-0.402,1.527-0.964
		L192.478,23.003z M186.491,51.696c0.603-3.697,1.246-7.515,1.045-11.252c-0.08-1.005-1.688-1.366-1.889-0.241
		c-0.723,3.697-0.603,7.555-0.482,11.292C185.205,52.218,186.33,52.459,186.491,51.696z M183.878,50.972
		c0.281-3.175,0.482-6.349,0.241-9.524c-0.08-0.844-1.527-1.206-1.648-0.201c-0.442,3.215-0.482,6.47-0.362,9.725
		C182.151,52.138,183.758,52.098,183.878,50.972z M102.784,70.623c0.683-0.764-0.321-1.688-1.085-1.085
		c-3.054,2.371-4.903,5.626-5.907,9.323c-0.281,1.085,1.326,1.527,1.688,0.482C98.564,76.048,100.453,73.155,102.784,70.623z
		 M40.978,32.929c0.121-1.125-1.648-1.326-1.889-0.281c-0.764,3.054-1.206,6.189-1.608,9.283c-0.12,1.045,1.567,1.246,1.768,0.241
		C39.974,39.118,40.657,36.023,40.978,32.929z M35.794,34.898c0.08-1.045-1.487-1.206-1.768-0.241
		c-0.844,2.974-0.683,6.43-0.121,9.444c0.121,0.683,1.085,0.482,1.085-0.161C35.192,40.926,35.674,37.912,35.794,34.898z"/>
	<path style="fill:#1D1D1B;" d="M190.389,194.154c0.121,1.688,0.08,3.335,0,5.023c0,0.964-1.487,0.964-1.487,0
		c-0.08-1.688-0.121-3.335,0-5.023C188.982,193.189,190.308,193.23,190.389,194.154z"/>
	<path style="fill:#F6F6F6;" d="M189.826,100.883c-0.04,0.723-0.04,1.447-0.04,2.21c-0.362,0.121-0.683,0.362-0.804,0.804
		c-0.844,3.255-1.085,6.229-3.777,8.68c-2.693,2.451-6.028,3.094-9.564,2.733c-0.161,0-0.201,0.08-0.322,0.121
		c-0.643,0-1.326,0.321-1.487,1.005c-1.005,3.416-2.411,6.068-6.068,7.153c-3.134,0.924-8.64,0.603-10.167-2.853
		c-0.241-0.723-1.005-1.326-1.929-1.165c-4.099,0.723-8.198,0.643-11.252-2.612c-2.692-2.853-3.054-6.671-2.813-10.368
		c0.964-0.442,0.804-2.17-0.322-2.612c-4.461-1.768-7.073-6.349-5.947-11.132c0.924-3.737,3.577-6.43,6.55-8.68
		c0.522,0.201,1.045,0.322,1.567,0.362c1.286,0.08,2.17-1.849,1.125-2.692c-0.844-0.683-1.728-1.005-2.612-1.567
		c-2.25-1.406-1.728-2.974-0.563-4.983c1.286-2.13,4.822-7.515,7.876-6.51c0.322,0.121,0.603-0.04,0.804-0.322
		c2.933,0.522,5.867,1.206,8.881,2.17c-8.479,6.51-16.757,17.963-15.15,28.853c1.567,10.448,11.493,17.28,21.741,16.315
		c0.322-0.04,0.563-0.121,0.804-0.241c2.532,0.161,5.144-0.804,7.475-2.291C180.061,109.362,183.557,103.374,189.826,100.883z"/>
	<path style="fill:#99D9F4;" d="M189.665,112.175c-0.241,18.566-0.643,37.132-1.808,55.617c-1.688-0.804-4.179-0.643-6.148-0.04
		c-0.12-0.04-0.241-0.12-0.362-0.12c-49.468-4.26-99.218-4.099-148.727-8.238c-0.964-14.547-1.406-29.135-1.688-43.682
		c3.376-5.546,6.791-11.091,11.493-15.592c1.286-1.206,2.933-2.451,4.782-3.617c-0.201,0.482-0.362,0.924-0.482,1.407
		c-0.683,2.813,0.723,6.47,3.175,7.756c-4.099,3.376-4.943,10.368-2.893,15.029c1.849,4.139,6.992,7.917,11.373,6.349
		c-0.563,5.184,4.019,9.926,9.002,11.493c5.184,1.688,13.422-0.884,12.9-7.153c5.264,2.13,10.73-0.522,14.226-4.863
		c5.184-6.43,6.349-16.195,4.581-24.031c-0.04-0.201-0.161-0.281-0.281-0.402c2.451-6.148,4.702-12.417,8.72-17.682
		c9.765-12.739,22.584-17.481,36.408-16.677c-2.492,1.768-4.702,4.903-5.787,6.751c-1.246,2.09-1.889,4.38-0.523,6.55
		c0.482,0.723,1.165,1.366,1.929,1.929c-4.3,2.532-7.635,6.751-7.876,11.895c-0.241,5.264,2.893,10.247,7.916,11.533
		c-4.943,9.564,7.274,20.776,16.717,16.356c1.969,7.515,20.535,5.425,20.374-4.782c3.697,0.522,7.515-0.402,10.408-2.853
		C188.058,114.345,188.902,113.3,189.665,112.175z M183.597,159.996c1.326-3.014,1.889-6.55,1.326-9.765
		c-0.161-1.045-1.728-0.764-1.768,0.241c-0.04,3.094-0.281,5.907-0.965,8.921C181.99,160.197,183.195,160.8,183.597,159.996z
		 M177.569,159.273c0.442,1.165,2.291,0.723,1.889-0.522c-0.804-2.291-0.844-4.621-0.362-6.992c0.281-1.286-1.527-1.808-1.929-0.563
		C176.283,153.928,176.484,156.661,177.569,159.273z M121.751,81.835c0.844-0.603,0.121-1.889-0.844-1.407
		c-3.094,1.567-5.184,4.3-6.47,7.475c-0.322,0.804,1.005,1.366,1.366,0.603C117.17,85.693,119.22,83.603,121.751,81.835z
		 M119.139,131.344c0.121-0.924-1.406-1.085-1.648-0.201c-0.643,2.733-0.844,5.465-0.643,8.238c0.08,1.246,2.009,1.286,1.929,0
		C118.617,136.729,118.818,134.036,119.139,131.344z M115.764,82.076c0.482-0.482-0.161-1.246-0.764-0.924
		c-3.576,1.808-5.626,5.586-6.108,9.484c-0.121,0.884,1.286,1.045,1.487,0.241C111.183,87.26,113.152,84.608,115.764,82.076z
		 M41.742,147.619c0.281,1.085,1.849,0.603,1.607-0.442c-0.482-2.572-0.804-5.184-1.045-7.756c-0.12-1.125-1.768-1.165-1.768,0
		C40.576,142.234,41.018,144.926,41.742,147.619z M37.281,149.628c0.201,0.764,1.286,0.442,1.125-0.322
		c-0.683-3.536-1.286-7.113-2.291-10.609c-0.281-1.005-1.728-0.563-1.527,0.442C35.272,142.676,36.277,146.132,37.281,149.628z"/>
	<path style="fill:#1D1D1B;" d="M187.535,40.444c0.201,3.737-0.442,7.555-1.045,11.252c-0.161,0.764-1.286,0.522-1.326-0.201
		c-0.121-3.737-0.241-7.595,0.482-11.292C185.848,39.077,187.455,39.439,187.535,40.444z"/>
	<path style="fill:#1D1D1B;" d="M185.124,14.202c0.804,0.08,0.844,1.326,0,1.246c-2.25-0.161-4.3-0.683-6.349-1.567
		c-0.683-0.281-0.201-1.447,0.482-1.206C181.146,13.439,183.115,13.961,185.124,14.202z"/>
	<path style="fill:#1D1D1B;" d="M184.923,150.231c0.563,3.215,0,6.751-1.326,9.765c-0.402,0.804-1.607,0.201-1.407-0.603
		c0.683-3.014,0.924-5.827,0.965-8.921C183.195,149.467,184.763,149.186,184.923,150.231z"/>
	<path style="fill:#1D1D1B;" d="M184.12,41.448c0.241,3.175,0.04,6.349-0.241,9.524c-0.12,1.125-1.728,1.165-1.768,0
		c-0.121-3.255-0.08-6.51,0.362-9.725C182.593,40.243,184.039,40.604,184.12,41.448z"/>
	<path style="fill:#1D1D1B;" d="M179.458,158.75c0.402,1.246-1.447,1.688-1.889,0.522c-1.085-2.612-1.286-5.345-0.402-8.077
		c0.402-1.246,2.21-0.723,1.929,0.563C178.614,154.129,178.654,156.46,179.458,158.75z"/>
	<path style="fill:#1D1D1B;" d="M150.966,196.364c1.045,0.08,1.045,1.527,0,1.607c-2.532,0.161-5.023,0.201-7.515,0.161
		c-1.246,0-1.246-1.929,0-1.929C145.943,196.163,148.435,196.203,150.966,196.364z"/>
	<path style="fill:#1D1D1B;" d="M120.908,80.428c0.965-0.482,1.688,0.804,0.844,1.407c-2.532,1.768-4.581,3.858-5.947,6.671
		c-0.362,0.763-1.688,0.201-1.366-0.603C115.724,84.728,117.813,81.996,120.908,80.428z"/>
	<path style="fill:#1D1D1B;" d="M117.492,131.143c0.241-0.884,1.768-0.723,1.648,0.201c-0.321,2.693-0.522,5.385-0.362,8.037
		c0.08,1.286-1.849,1.246-1.929,0C116.648,136.608,116.849,133.875,117.492,131.143z"/>
	<path style="fill:#1D1D1B;" d="M117.331,178.843c1.005-0.04,0.924,1.447,0,1.567c-2.21,0.241-4.38,0.362-6.55,0.482
		c-1.005,0.04-0.964-1.406,0-1.527C112.951,179.124,115.121,178.924,117.331,178.843z"/>
	<path style="fill:#1D1D1B;" d="M115,81.152c0.603-0.321,1.246,0.442,0.764,0.924c-2.612,2.532-4.581,5.184-5.385,8.801
		c-0.201,0.804-1.607,0.643-1.487-0.241C109.374,86.738,111.424,82.96,115,81.152z"/>
	<path style="fill:#1D1D1B;" d="M113.795,172.534c0.723,0.04,0.764,1.165,0,1.125c-2.532-0.08-5.023-0.362-7.515-0.563
		c-0.763-0.04-0.763-1.165,0-1.125C108.771,172.132,111.303,172.253,113.795,172.534z"/>
	<path style="fill:#1D1D1B;" d="M101.699,69.538c0.764-0.603,1.768,0.321,1.085,1.085c-2.331,2.532-4.219,5.425-5.305,8.72
		c-0.362,1.045-1.969,0.603-1.688-0.482C96.796,75.164,98.645,71.909,101.699,69.538z"/>
	<path style="fill:#F6F6F6;" d="M96.877,106.71c-0.241,4.139-0.281,8.278-1.728,12.297c-2.09,5.867-7.917,13.301-15.19,10.247
		c-0.321-0.121-0.563-0.08-0.804,0.04c-0.563-0.121-1.206,0.121-1.366,0.764c-2.331,10.81-17.842,5.063-17.441-4.179
		c0.121-0.121,0.281-0.201,0.442-0.321c1.045-1.005-0.281-2.371-1.447-1.889c-5.546,2.411-10.207-3.255-10.408-8.399
		c-0.121-4.019,1.929-6.59,4.179-9.484c0.281-0.08,0.563-0.121,0.884-0.281c0.965-0.563,0.523-2.13-0.563-2.09
		c-4.782,0.12-4.34-4.943-2.371-7.836c0.643-0.884,1.406-1.608,2.25-2.25c4.742-2.009,9.926-3.134,14.145-2.21
		c-6.751,4.26-11.734,11.372-11.212,19.651c0.482,7.635,6.631,16.275,14.909,15.833c0.563-0.04,1.005-0.442,1.206-0.924
		c6.751,0.924,13.583-2.652,18.727-9.042C93.541,113.622,95.309,110.206,96.877,106.71z"/>
	<path style="fill:#1D1D1B;" d="M48.694,11.59c0.924,0.321,0.563,1.688-0.402,1.487c-2.291-0.482-4.541-0.563-6.832-0.683
		c-0.161,0-0.281-0.04-0.362-0.08c-0.764-0.362-0.643-1.567,0.362-1.688c1.005-0.121,1.969-0.121,2.934,0
		C45.841,10.787,47.287,11.148,48.694,11.59z"/>
	<path style="fill:#1D1D1B;" d="M44.153,14.162c0.764,0.241,0.563,1.406-0.161,1.406c-0.08,0-0.12-0.04-0.201-0.04
		c-3.094-0.683-6.068-1.567-9.082-2.451c-0.964-0.281-0.563-1.768,0.442-1.527c1.929,0.522,3.818,1.005,5.706,1.608
		C41.983,13.439,43.068,13.801,44.153,14.162z"/>
	<path style="fill:#1D1D1B;" d="M43.349,147.177c0.241,1.045-1.326,1.527-1.607,0.442c-0.723-2.692-1.165-5.385-1.206-8.198
		c0-1.165,1.648-1.125,1.768,0C42.545,141.993,42.867,144.605,43.349,147.177z"/>
	<path style="fill:#1D1D1B;" d="M39.09,32.648c0.241-1.045,2.009-0.844,1.889,0.281c-0.321,3.094-1.005,6.189-1.728,9.243
		c-0.201,1.005-1.889,0.804-1.768-0.241C37.884,38.836,38.326,35.702,39.09,32.648z"/>
	<path style="fill:#1D1D1B;" d="M38.165,197.851c0.924,0.201,0.723,1.768-0.241,1.648c-3.978-0.362-7.997-0.804-12.056-0.884
		c-1.206,0-1.206-1.929,0-1.889C30.008,196.726,34.106,196.967,38.165,197.851z"/>
	<path style="fill:#1D1D1B;" d="M38.406,149.307c0.161,0.764-0.924,1.085-1.125,0.322c-1.005-3.496-2.009-6.952-2.692-10.488
		c-0.201-1.005,1.246-1.447,1.527-0.442C37.12,142.194,37.723,145.77,38.406,149.307z"/>
	<path style="fill:#1D1D1B;" d="M34.026,34.657c0.281-0.965,1.848-0.804,1.768,0.241c-0.121,3.014-0.603,6.028-0.804,9.042
		c0,0.643-0.964,0.844-1.085,0.161C33.343,41.087,33.182,37.631,34.026,34.657z"/>
	<path style="fill:#1D1D1B;" d="M34.95,201.066c1.407-0.04,1.407,2.291,0,2.25c-3.536-0.121-7.073-0.161-10.569-0.362
		c-0.964-0.04-0.964-1.487,0-1.527C27.878,201.227,31.414,201.186,34.95,201.066z"/>
</g>
<g>
</g>
<g>
</g>
<g>
</g>
<g>
</g>
<g>
</g>
<g>
</g>
<g>
</g>
<g>
</g>
<g>
</g>
<g>
</g>
<g>
</g>
<g>
</g>
<g>
</g>
<g>
</g>
<g>
</g>
</svg>
